
        <svg xmlns="http://www.w3.org/2000/svg" xmlns:xlink="http://www.w3.org/1999/xlink" version="1.1" width="3214.285714285714" height="1382.1428571428569" viewBox="0 0 3214.285714285714 1382.1428571428569">
			
			<g transform="scale(10.714285714285714) translate(10, 10)">
				<defs id="SvgjsDefs2329"/><g id="SvgjsG2330" featureKey="symbolContainer" transform="matrix(1,0,0,1,0,0)" fill="#000"><rect width="110" height="109" rx="8"/></g><g id="SvgjsG2331" featureKey="symbolFeature-0" transform="matrix(0.8974373897098272,0,0,0.8974373897098272,10.128132226234616,9.615375661741037)" fill="#ffffff"><path xmlns="http://www.w3.org/2000/svg" d="M50,30c-11.028,0-20,8.972-20,20c0,11.014,9.033,20,20,20c11.008,0,20-9.032,20-20C70,38.972,61.028,30,50,30z M50,32  c9.925,0,18,8.075,18,18c0,4.222-1.471,8.101-3.914,11.174c-1.941-2.511-4.558-4.44-7.576-5.589c6.529-5.952,2.294-16.83-6.51-16.83  c-8.797,0-13.042,10.875-6.51,16.83c-3.018,1.149-5.635,3.078-7.576,5.589C33.471,58.101,32,54.222,32,50C32,40.075,40.075,32,50,32  z M37.271,62.695c2.081-2.834,5.12-4.876,8.64-5.785c0.862-0.223,1.025-1.385,0.251-1.833C39.397,51.158,42.17,40.755,50,40.755  c7.829,0,10.602,10.404,3.839,14.322c-0.774,0.448-0.611,1.61,0.251,1.833c3.52,0.909,6.56,2.95,8.641,5.785  C55.666,69.775,44.306,69.748,37.271,62.695z"/><path xmlns="http://www.w3.org/2000/svg" d="M85.909,63.804c-1.917-1.107-4.197-1.026-5.993,0.004l-6.054-3.495c2.852-6.573,2.852-14.051,0-20.625l6.051-3.493  c0.914,0.525,1.952,0.805,3.006,0.805c1.018,0,2.048-0.259,2.99-0.803c2.865-1.654,3.851-5.331,2.196-8.196  c-1.654-2.866-5.331-3.85-8.196-2.196c-1.918,1.107-2.988,3.122-2.993,5.192l-6.059,3.498C66.678,28.887,60.293,25.021,53,24.178  v-6.99c1.79-1.039,3-2.973,3-5.188c0-3.309-2.691-6-6-6s-6,2.691-6,6c0,2.215,1.21,4.149,3,5.188v6.99  c-7.293,0.842-13.678,4.709-17.857,10.315l-6.059-3.498c-0.005-2.07-1.075-4.084-2.993-5.192c-2.864-1.654-6.542-0.668-8.196,2.196  c-1.654,2.865-0.669,6.542,2.196,8.196c1.887,1.089,4.161,1.052,5.996-0.003l6.051,3.493c-2.852,6.573-2.852,14.051,0,20.625  l-6.054,3.495c-1.796-1.031-4.075-1.111-5.993-0.004c-2.865,1.654-3.851,5.331-2.196,8.196c1.654,2.865,5.33,3.851,8.196,2.196  c1.918-1.107,2.988-3.122,2.993-5.192l6.059-3.498C33.322,71.113,39.707,74.979,47,75.822v6.99c-1.79,1.039-3,2.973-3,5.188  c0,3.309,2.691,6,6,6s6-2.691,6-6c0-2.215-1.21-4.149-3-5.188v-6.99c7.293-0.842,13.678-4.709,17.857-10.315l6.059,3.498  c0.005,2.07,1.075,4.084,2.993,5.192c2.866,1.654,6.541,0.669,8.196-2.196C89.76,69.135,88.774,65.458,85.909,63.804z   M80.909,27.536c1.906-1.101,4.359-0.449,5.464,1.464c1.103,1.91,0.446,4.361-1.464,5.464c-1.933,1.116-4.384,0.412-5.464-1.464  C78.365,31.133,78.971,28.655,80.909,27.536z M77.286,33.091c0.215,0.581,0.532,1.169,1,1.732l-5.27,3.042l-1-1.731L77.286,33.091z   M15.091,34.464c-1.91-1.103-2.566-3.554-1.464-5.464c1.105-1.913,3.557-2.565,5.464-1.464c1.91,1.103,2.566,3.554,1.464,5.464  C19.452,34.91,17.001,35.567,15.091,34.464z M22.714,33.091l5.27,3.043l-1,1.731l-5.27-3.042  C22.177,34.267,22.498,33.673,22.714,33.091z M19.091,72.464c-1.911,1.103-4.361,0.445-5.464-1.464  c-1.103-1.91-0.446-4.361,1.464-5.464c1.937-1.119,4.385-0.411,5.464,1.464C21.635,68.867,21.029,71.345,19.091,72.464z   M22.714,66.909c-0.258-0.697-0.611-1.265-1-1.732l5.27-3.042l1,1.731L22.714,66.909z M50,8c2.206,0,4,1.794,4,4s-1.794,4-4,4  s-4-1.794-4-4S47.794,8,50,8z M49,24v-6.084c0.606,0.103,1.272,0.124,2,0V24H49z M50,92c-2.206,0-4-1.794-4-4  c0-2.855,2.948-4.82,5.598-3.662C53.01,84.956,54,86.363,54,88C54,90.206,52.206,92,50,92z M51,76v6.084  c-0.736-0.125-1.398-0.102-2,0V76H51z M50,74c-13.233,0-24-10.767-24-24s10.767-24,24-24s24,10.767,24,24S63.233,74,50,74z   M73.017,62.134l5.27,3.042c-0.384,0.461-0.741,1.033-1,1.732l-5.27-3.043L73.017,62.134z M86.373,71  c-1.103,1.91-3.554,2.568-5.464,1.464c-1.937-1.118-2.545-3.595-1.464-5.463c0,0,0,0,0,0c0.001-0.002,0.003-0.004,0.004-0.007  c1.085-1.874,3.527-2.574,5.459-1.457C86.819,66.639,87.476,69.09,86.373,71z"/><path xmlns="http://www.w3.org/2000/svg" d="M21.763,23.115c5.195-5.456,11.79-9.267,19.072-11.021c1.291-0.306,1.75,1.636,0.469,1.944  c-6.907,1.665-13.163,5.28-18.092,10.456C22.297,25.452,20.853,24.07,21.763,23.115z"/><path xmlns="http://www.w3.org/2000/svg" d="M59.165,12.094c7.282,1.755,13.877,5.566,19.072,11.021c0.913,0.958-0.543,2.328-1.449,1.379  c-4.929-5.176-11.185-8.792-18.092-10.456C57.412,13.729,57.877,11.788,59.165,12.094z"/><path xmlns="http://www.w3.org/2000/svg" d="M85.493,60.452c2.009-6.836,2.009-14.069,0-20.904c-0.374-1.268,1.545-1.834,1.918-0.564c2.145,7.294,2.092,14.922,0,22.033  C87.039,62.285,85.119,61.722,85.493,60.452z"/><path xmlns="http://www.w3.org/2000/svg" d="M78.237,76.885c-5.195,5.456-11.79,9.267-19.072,11.021c-1.303,0.314-1.739-1.638-0.469-1.944  c6.907-1.665,13.163-5.28,18.092-10.456C77.707,74.547,79.146,75.931,78.237,76.885z"/><path xmlns="http://www.w3.org/2000/svg" d="M40.835,87.906c-7.282-1.755-13.877-5.566-19.072-11.021c-0.91-0.955,0.534-2.337,1.449-1.379  c4.929,5.176,11.185,8.792,18.092,10.456C42.572,86.268,42.14,88.22,40.835,87.906z"/><path xmlns="http://www.w3.org/2000/svg" d="M14.507,39.548c-2.009,6.836-2.009,14.069,0,20.904c0.375,1.273-1.547,1.827-1.918,0.564  c-2.145-7.294-2.092-14.922,0-22.033C12.961,37.715,14.881,38.278,14.507,39.548z"/></g><g id="SvgjsG2332" featureKey="nameFeature-0" transform="matrix(2.240143144563567,0,0,2.240143144563567,121.93548489320786,-3.4336916694904716)" fill="#000"><path d="M3.6 37.8 l0 -23.48 c0 -1.36 1.08 -2.48 2.48 -2.48 l0.52 0 c1.2 0 1.88 0.6 2.56 1.44 l14 18.12 l0 -17.2 c0 -1.32 1.08 -2.4 2.4 -2.4 c1.36 0 2.44 1.08 2.44 2.4 l0 23.52 c0 1.36 -1.04 2.44 -2.4 2.44 l-0.2 0 c-1.16 0 -1.88 -0.6 -2.56 -1.48 l-14.4 -18.64 l0 17.76 c0 1.32 -1.08 2.4 -2.4 2.4 c-1.36 0 -2.44 -1.08 -2.44 -2.4 z M38.28 27.96 l10.84 0 c-0.32 -3.12 -2.16 -5.56 -5.36 -5.56 c-2.96 0 -5.04 2.28 -5.48 5.56 z M51.92 37.68 c-1.92 1.72 -4.32 2.8 -7.6 2.8 c-6.12 0 -10.84 -4.44 -10.84 -10.96 l0 -0.08 c0 -6.04 4.28 -11 10.32 -11 c6.72 0 10.04 5.52 10.04 10.4 c0 1.36 -1.04 2.32 -2.28 2.32 l-13.24 0 c0.52 3.44 2.96 5.36 6.08 5.36 c2.04 0 3.64 -0.72 5 -1.84 c0.36 -0.28 0.68 -0.44 1.24 -0.44 c1.08 0 1.92 0.84 1.92 1.96 c0 0.6 -0.28 1.12 -0.64 1.48 z M65.88000000000001 40.36 c-3.56 0 -6.08 -1.56 -6.08 -6.2 l0 -11.12 l-0.8 0 c-1.16 0 -2.08 -0.92 -2.08 -2.08 s0.92 -2.08 2.08 -2.08 l0.8 0 l0 -3.6 c0 -1.32 1.08 -2.4 2.44 -2.4 c1.32 0 2.4 1.08 2.4 2.4 l0 3.6 l3.8 0 c1.16 0 2.12 0.92 2.12 2.08 s-0.96 2.08 -2.12 2.08 l-3.8 0 l0 10.36 c0 1.88 0.96 2.64 2.6 2.64 c0.56 0 1.04 -0.12 1.2 -0.12 c1.08 0 2.04 0.88 2.04 2 c0 0.88 -0.6 1.6 -1.28 1.88 c-1.04 0.36 -2.04 0.56 -3.32 0.56 z"/></g>
			</g>
		</svg>
	