
        <svg xmlns="http://www.w3.org/2000/svg" xmlns:xlink="http://www.w3.org/1999/xlink" version="1.1" width="3187.5" 
        height="1022.221314010707" viewBox="0 0 3187.5 1022.221314010707">
			
			<g transform="scale(9.375) translate(10, 10)">
				<defs id="SvgjsDefs2231"><linearGradient id="SvgjsLinearGradient2238"><stop id="SvgjsStop2239" stop-color="#8f5e25" offset="0"></stop><stop id="SvgjsStop2240" stop-color="#fbf4a1" offset="0.5"></stop><stop id="SvgjsStop2241" stop-color="#8f5e25" offset="1"></stop></linearGradient><linearGradient id="SvgjsLinearGradient2242"><stop id="SvgjsStop2243" stop-color="#8f5e25" offset="0"></stop><stop id="SvgjsStop2244" stop-color="#fbf4a1" offset="0.5"></stop><stop id="SvgjsStop2245" stop-color="#8f5e25" offset="1"></stop></linearGradient><linearGradient id="SvgjsLinearGradient2246"><stop id="SvgjsStop2247" stop-color="#8f5e25" offset="0"></stop><stop id="SvgjsStop2248" stop-color="#fbf4a1" offset="0.5"></stop><stop id="SvgjsStop2249" stop-color="#8f5e25" offset="1"></stop></linearGradient></defs><g id="SvgjsG2232" featureKey="symbolFeature-0" transform="matrix(1.1955585408844316,0,0,1.1955585408844316,-10.487439894615134,-13.249063187866657)" fill="url(#SvgjsLinearGradient2238)"><path xmlns="http://www.w3.org/2000/svg" d="M89.474,50.384c-0.271-0.4-0.51-0.771-0.71-1.101c-1.37-2.26-2.72-4.21-4.28-6.47c-1.03-1.49-2.189-3.17-3.56-5.22  l0.84-1.58c1.55-2.92,0.42-6.561-2.5-8.1c-2.92-1.551-6.55-0.431-8.101,2.489l-0.67,1.261c-0.437-0.08-0.854-0.149-1.243-0.199  c0.33-1.256,0.822-2.405,1.333-3.595c0.825-1.892,1.678-3.854,1.796-6.274c0.226-4.571-2.204-9.325-7.237-10.315  c-0.462-0.1-0.958-0.162-1.468-0.188c-0.511-0.023-1.006-0.006-1.474,0.044c-5.092,0.503-7.964,4.995-8.192,9.576  c-0.108,2.432,0.55,4.464,1.176,6.421c0.421,1.302,0.816,2.555,1.008,3.912c-1.901,0.421-5.403,1.344-8.658,2.968  c-2.91,1.46-4.75,6.08-6.31,10.85l-0.21,0.65c-0.23,0.7-0.45,1.31-0.641,1.87c-1.18,3.39-1.72,4.939-0.329,7.93  c1.729,3.7,6.869,8.95,7.119,9.21c1.41,1.34,2.771,2.58,4.061,3.561v0.01l-1.3,2.46c-0.011,0.01-0.011,0.02-0.011,0.02  c-0.02,0.04-0.029,0.07-0.05,0.11c0,0.01-0.01,0.02-0.01,0.04c-0.03,0.08-0.05,0.17-0.06,0.26l-1.391,11.57v0.001H8.772v3h40.429  c0.12,0,0.234-0.018,0.347-0.044c0.242-0.021,0.482-0.099,0.677-0.268l10.02-8.729c0.13-0.11,0.23-0.25,0.301-0.39l9.25-17.48  c2.14,0.66,14.71,4.18,17.01,4.18c2.069,0,3.899-0.59,4.88-2.43C93.674,56.684,91.144,52.894,89.474,50.384z M89.044,58.983  c-0.94,1.74-5.96,0.32-8.381-0.359c-0.409-0.12-0.79-0.23-1.13-0.32c-3.35-0.89-6.109-1.68-8.319-2.351  c-0.87-0.27-1.66-0.52-2.37-0.739c-1.15-0.37-2.09-0.69-2.851-0.95c-1.479-0.51-2.77-1.1-3.79-1.7  c-0.859-0.51-1.529-1.03-1.949-1.53c-0.19-0.22-0.341-0.439-0.431-0.649c-0.14-0.32-0.13-0.59,0.011-0.91  c0.47-1.03,1.029-1.33,1.409-1.47c0.21-0.08,0.44-0.12,0.69-0.141c0.74-0.069,1.62,0.101,2.55,0.4c1.44,0.45,2.98,1.2,4.271,1.82  c0.8,0.39,1.55,0.75,2.25,1.05c0.17,0.069,0.34,0.14,0.5,0.2c0.6,0.229,1.21,0.449,1.81,0.659c3.271,1.141,6.31,2.021,6.46,2.061  c0.79,0.22,1.62-0.24,1.85-1.03c0.23-0.8-0.229-1.63-1.029-1.859c-0.021,0-0.65-0.181-1.641-0.49c-1.09-0.33-2.619-0.82-4.22-1.38  l1.521-2.851v-0.01l3.08-5.83c1,1.48,1.869,2.75,2.68,3.92c1.6,2.3,2.859,4.13,4.18,6.32c0.22,0.359,0.49,0.77,0.78,1.2  C88.334,54.073,90.184,56.854,89.044,58.983z M69.7,38.4c3.438,0.406,5.44,2.23,6.311,3.258l-0.396,0.748  c-1.084-1.145-3.123-2.744-6.343-3.195L69.7,38.4z M68.767,40.163c3.412,0.368,5.433,2.127,6.35,3.179l-0.383,0.722v0.01  l-2.32,4.391c-0.68-0.261-1.489-0.66-2.35-1.08c-1.29-0.63-2.71-1.311-4.16-1.811L68.767,40.163z M73.154,31.823l0.021,0.011  l0.149-0.28c0.92-1.74,3.07-2.4,4.8-1.48c1.73,0.91,2.4,3.07,1.48,4.801l-0.31,0.6h-0.011l-0.31,0.59l-0.28,0.53l-0.149,0.28  l-0.761,1.43l-0.319,0.61l-0.73,1.38l-0.225,0.423c-1.05-1.135-3.08-2.774-6.31-3.259l0.044-0.084h-0.01l0.101-0.2l1.189-2.25  l0.72-1.37l0.721-1.37L73.154,31.823z M56.96,20.855c0.159-3.381,2.292-6.965,6.574-6.761c4.282,0.205,6.052,3.976,5.893,7.357  c-0.09,1.881-0.804,3.494-1.551,5.205c-0.678,1.572-1.396,3.326-1.744,5.417c-0.011,0.021-0.028,0.037-0.038,0.06  c-0.03,0.09-0.061,0.189-0.08,0.29c-0.03,0.14-0.03,0.279-0.021,0.42v0.01c0.061,0.64,0.54,1.2,1.221,1.32  c0.31,0.06,0.699,0.12,1.149,0.18c0.061,0.01,0.13,0.021,0.19,0.03c0.149,0.02,0.3,0.05,0.47,0.069l-0.189,0.36l-5.36,10.14  c-1.13-0.17-2.23-0.14-3.25,0.23c-1.38,0.5-2.43,1.53-3.12,3.05c-0.49,1.08-0.5,2.24-0.03,3.33c0.351,0.83,0.95,1.57,1.71,2.24  l-2.38,4.49c-2.27-3-5.71-8.15-5.75-8.21c-0.17-0.25-0.39-0.431-0.64-0.53c-0.45-0.21-1-0.18-1.44,0.12  c-0.689,0.46-0.88,1.39-0.42,2.08c0.17,0.25,4.181,6.239,6.45,9.13l0.12,0.149c0.05,0.061,0.1,0.12,0.14,0.181  c0.66,0.84,1.19,1.569,1.59,2.22c0.92,1.5,1.12,2.55,0.36,3.42c-0.26,0.3-0.479,0.34-0.67,0.35c-0.03,0.011-0.05,0.011-0.07,0.011  c-0.39,0-0.87-0.16-1.39-0.431c-0.63-0.33-1.33-0.83-2.04-1.38c-1.22-0.979-2.45-2.14-3.37-3.02c-0.05-0.05-5-5.101-6.51-8.33  c-0.851-1.84-0.69-2.43,0.439-5.69c0.2-0.56,0.42-1.189,0.66-1.899l0.221-0.67c0.71-2.19,2.6-8,4.789-9.091  c3.11-1.55,6.561-2.43,8.23-2.789c0.62-0.131,0.99-0.19,1-0.19c0.82-0.14,1.37-0.92,1.24-1.73c-0.021-0.124-0.062-0.239-0.109-0.35  c-0.157-2.071-0.713-3.854-1.233-5.467C57.425,24.416,56.871,22.737,56.96,20.855z M53.934,78.764l-2.46-1.3l0.61-5.061  c0.3,0.05,0.609,0.12,0.93,0.21c0.01,0,0.02,0.011,0.04,0.011c0.62,0.17,1.31,0.449,2.09,0.869c0.8,0.421,1.42,0.83,1.91,1.25  c0.01,0.011,0.02,0.021,0.03,0.021c0.25,0.21,0.479,0.43,0.689,0.66L53.934,78.764z M59.224,73.403c-0.19-0.18-0.38-0.35-0.59-0.52  c-0.63-0.54-1.391-1.05-2.34-1.55c-0.95-0.5-1.801-0.851-2.601-1.061c-0.25-0.08-0.5-0.14-0.75-0.2l0.351-0.659  c0.96,0.51,1.89,0.8,2.79,0.8c0.069,0,0.13-0.011,0.189-0.011c1.08-0.05,2.05-0.529,2.79-1.38c2.48-2.83,0.71-6.04-1.02-8.39  l2.76-5.21c1.359,0.79,2.87,1.41,4.21,1.87c0.75,0.26,1.55,0.53,2.41,0.8L59.224,73.403z"></path></g><g id="SvgjsG2233" featureKey="nameFeature-0" transform="matrix(0.986874624713653,0,0,0.986874624713653,118.0262507505727,9.499753416870426)" fill="url(#SvgjsLinearGradient2242)"><path d="M2 40 l0 -32 l4 0 l0 12.68 l4 -12.68 l4 0 l-4.8 15.2 l4.8 16.8 l-4 0 l-4 -14 l0 14 l-4 0 z M18.7 23.16 l0 -15.16 l4 0 l0 15.16 c0 11.56 0 13.24 2 13.24 s2 -1.68 2 -13.24 l0 -15.16 l4 0 l0 15.16 c0 12.8 0 17.24 -6 17.24 s-6 -4.44 -6 -17.24 z M37 40 l0 -32 l6.48 0 c4.12 0 5.52 2.52 5.52 7.36 c0 4.36 -0.52 6.84 -1.76 8.04 l0 0.24 c1.04 0.36 1.36 2.24 1.76 6.92 l0.8 9.44 l-4 0 l-0.52 -9.44 c-0.28 -4.76 -1 -5.76 -2.2 -5.76 l-2.08 0 l0 15.2 l-4 0 z M41 21.6 l2.48 0 c1.4 0 1.8 -1.4 1.8 -6.24 c0 -3.16 -0.6 -4.16 -1.8 -4.16 l-2.48 0 l0 10.4 z M55.5 40 l0 -32 l6 0 c6 0 6 4.4 6 15.16 c0 12.4 0 16.84 -6 16.84 l-6 0 z M59.5 36 l2 0 c2.24 0 2.24 -1.68 2.24 -12.84 c0 -10 0 -11.96 -2.24 -11.96 l-2 0 l0 24.8 z M84.89999999999999 40 l0 -16.8 c0 -11.16 0 -15.56 6 -15.56 s6 4.4 6 15.56 l0 16.8 l-4 0 l0 -9.2 l-4 0 l0 9.2 l-4 0 z M88.89999999999999 27.6 l4 0 l0 -4.4 c0 -10.4 0 -12.36 -2 -12.36 s-2 1.96 -2 12.36 l0 4.4 z M102.99999999999999 23.16 c0 -11.16 0 -15.56 5.6 -15.56 c4.12 0 5.24 2.52 5.52 8.56 l-3.72 0 c-0.16 -4.36 -0.6 -5.36 -1.8 -5.36 c-1.84 0 -1.84 1.96 -1.84 12.36 c0 11.56 0 13.24 1.84 13.24 c1.32 0 1.72 -1 1.8 -6.16 l3.76 0 c-0.24 7.4 -1.24 10.16 -5.56 10.16 c-5.6 0 -5.6 -4.44 -5.6 -17.24 z M119.46 40 l0 -16.8 c0 -11.16 0 -15.56 6 -15.56 s6 4.4 6 15.56 l0 16.8 l-4 0 l0 -9.2 l-4 0 l0 9.2 l-4 0 z M123.46 27.6 l4 0 l0 -4.4 c0 -10.4 0 -12.36 -2 -12.36 s-2 1.96 -2 12.36 l0 4.4 z M137.95999999999998 40 l0 -32 l6 0 c6 0 6 4.4 6 15.16 c0 12.4 0 16.84 -6 16.84 l-6 0 z M141.95999999999998 36 l2 0 c2.24 0 2.24 -1.68 2.24 -12.84 c0 -10 0 -11.96 -2.24 -11.96 l-2 0 l0 24.8 z M156.05999999999997 40 l0 -32 l9.2 0 l0 3.2 l-5.2 0 l0 10.4 l4.4 0 l0 3.2 l-4.4 0 l0 11.2 l5.2 0 l0 4 l-9.2 0 z M170.55999999999997 40 l0 -32 l3.6 0 l4.2 20 l0.4 0 l4.2 -20 l3.6 0 l0 32 l-4 0 l0 -16 l-2.84 16 l-2.4 0 l-2.76 -16 l0 16 l-4 0 z M191.45999999999998 8 l4 0 l2.4 12.32 l0.4 0 l2.4 -12.32 l4 0 l-4.6 18.08 l0 13.92 l-4 0 l0 -13.92 z"></path></g><g id="SvgjsG2234" featureKey="sloganFeature-0" transform="matrix(1.1703889070576534,0,0,1.1703889070576534,117.85433341779019,50.54979289468603)" fill="url(#SvgjsLinearGradient2246)"><path d="M8.24 8.3 l-2.48 5.14 l0 5.32 c0 0.44 -0.32 0.64 -0.64 0.64 c-0.34 0 -0.66 -0.22 -0.66 -0.64 l0 -5.32 l-2.54 -5.12 c-0.42 -0.88 0.8 -1.4 1.22 -0.56 l1.98 3.96 l1.9 -3.94 c0.44 -0.92 1.64 -0.34 1.22 0.52 z M12.56 15.86 l0 -4.96 c0 -2.4 1.24 -3.68 3.64 -3.68 l0.52 0 c2.38 0 3.64 1.28 3.64 3.68 l0 4.96 c0 2.2 -1.46 3.64 -3.64 3.64 l-0.52 0 c-2.22 0 -3.64 -1.46 -3.64 -3.64 z M16.200000000000003 18.16 l0.52 0 c1.44 0 2.3 -0.9 2.3 -2.3 l0 -4.96 c0 -1.56 -0.76 -2.36 -2.3 -2.36 l-0.52 0 c-1.52 0 -2.36 0.82 -2.36 2.36 l0 4.96 c0 1.46 0.92 2.3 2.36 2.3 z M25.060000000000002 15.86 l0 -7.86 c0 -0.42 0.34 -0.64 0.66 -0.64 c0.34 0 0.66 0.22 0.66 0.64 l0 7.86 c0 1.44 0.98 2.3 2.34 2.3 l0.5 0 c1.4 0 2.36 -0.98 2.36 -2.3 l0 -7.86 c0 -0.42 0.32 -0.64 0.66 -0.64 c0.32 0 0.66 0.22 0.66 0.64 l0 7.86 c0 2.06 -1.46 3.64 -3.68 3.64 l-0.5 0 c-2.22 0 -3.66 -1.54 -3.66 -3.64 z M48.88 7.32 c1.82 0 3.76 0.7 3.76 2.76 c0 0.48 -0.32 0.7 -0.66 0.7 s-0.7 -0.24 -0.7 -0.7 c0 -0.16 -0.1 -1.46 -2.4 -1.46 c-1.82 0 -2.62 0.72 -2.62 2.44 l0 4.82 c0 1.74 0.98 2.28 2.62 2.28 c1.66 0 2.58 -0.68 2.58 -2.3 c0 -0.46 0.34 -0.68 0.66 -0.68 c0.34 0 0.66 0.22 0.66 0.68 c0 2.7 -1.5 3.6 -3.9 3.6 c-2.6 0 -3.92 -0.96 -3.92 -3.58 l0 -4.82 c0 -2.84 1.42 -3.74 3.92 -3.74 z M63.38 18.86 l-0.78 -2.54 l-3.72 0 l-0.74 2.5 c-0.26 0.86 -1.58 0.6 -1.3 -0.28 c1.04 -3.5 2.06 -7.06 3.08 -10.6 c0.12 -0.38 0.44 -0.58 0.76 -0.58 c0.3 0 0.62 0.2 0.74 0.58 l3.18 10.6 c0.22 0.76 -0.96 1.18 -1.22 0.32 z M60.720000000000006 10.06 l-1.44 4.92 l2.94 0 c-0.5 -1.68 -0.96 -3.12 -1.5 -4.92 z M75.82 8 l0 10.76 c0 0.42 -0.32 0.64 -0.64 0.64 c-0.24 0 -0.56 -0.18 -0.7 -0.44 c-1.5 -2.94 -2.62 -5.2 -4.12 -8.16 l0 7.96 c0 0.42 -0.32 0.64 -0.66 0.64 c-0.32 0 -0.66 -0.22 -0.66 -0.64 l0 -10.76 c0 -0.7 1 -0.74 1.22 -0.32 l4.22 8.34 l0 -8.02 c0 -0.42 0.32 -0.64 0.66 -0.64 s0.68 0.22 0.68 0.64 z M88.4 18.76 l0 -10.76 c0 -0.42 0.32 -0.64 0.64 -0.64 s0.66 0.22 0.66 0.64 l0 10.06 l3.98 0 c0.44 0 0.68 0.34 0.68 0.68 s-0.24 0.66 -0.68 0.66 l-4.62 0 c-0.4 0 -0.66 -0.32 -0.66 -0.64 z M98.28 18.7 l0 -10.64 c0 -0.46 0.36 -0.7 0.7 -0.7 l4.6 0 c0.44 0 0.66 0.32 0.66 0.66 s-0.22 0.68 -0.66 0.68 l-3.96 0 l0 3.88 l3.14 0 c0.46 0 0.68 0.32 0.68 0.66 s-0.24 0.7 -0.68 0.7 l-3.14 0 l0 4.14 l3.96 0 c0.42 0 0.64 0.34 0.64 0.66 c0 0.34 -0.22 0.66 -0.64 0.66 l-4.6 0 c-0.34 0 -0.7 -0.12 -0.7 -0.7 z M114.7 18.86 l-0.78 -2.54 l-3.72 0 l-0.74 2.5 c-0.26 0.86 -1.58 0.6 -1.3 -0.28 c1.04 -3.5 2.06 -7.06 3.08 -10.6 c0.12 -0.38 0.44 -0.58 0.76 -0.58 c0.3 0 0.62 0.2 0.74 0.58 l3.18 10.6 c0.22 0.76 -0.96 1.18 -1.22 0.32 z M112.03999999999999 10.06 l-1.44 4.92 l2.94 0 c-0.5 -1.68 -0.96 -3.12 -1.5 -4.92 z M121.69999999999999 15.9 l0 2.86 c0 0.44 -0.34 0.64 -0.66 0.64 c-0.34 0 -0.66 -0.2 -0.66 -0.64 l0 -10.74 c0 -0.4 0.22 -0.66 0.66 -0.66 l2.7 0 c0.76 0 3.16 0.22 3.16 2.92 l0 2.5 c0 1.52 -0.56 2.48 -1.84 2.9 l1.36 2.74 c0.28 0.54 -0.14 0.98 -0.58 0.98 c-0.24 0 -0.54 -0.16 -0.7 -0.5 l-1.46 -3 l-1.98 0 z M125.58 12.780000000000001 l0 -2.5 c0 -0.48 -0.18 -1.58 -1.84 -1.58 l-2.04 0 l0 5.86 l1.86 0 c0.98 0 2.02 -0.22 2.02 -1.78 z M138.54 8 l0 10.76 c0 0.42 -0.32 0.64 -0.64 0.64 c-0.24 0 -0.56 -0.18 -0.7 -0.44 c-1.5 -2.94 -2.62 -5.2 -4.12 -8.16 l0 7.96 c0 0.42 -0.32 0.64 -0.66 0.64 c-0.32 0 -0.66 -0.22 -0.66 -0.64 l0 -10.76 c0 -0.7 1 -0.74 1.22 -0.32 l4.22 8.34 l0 -8.02 c0 -0.42 0.32 -0.64 0.66 -0.64 s0.68 0.22 0.68 0.64 z"></path></g>
			</g>
		</svg>
	