
        <svg xmlns="http://www.w3.org/2000/svg" xmlns:xlink="http://www.w3.org/1999/xlink" version="1.1" width="3214.285714285714" height="2731.031363101782" viewBox="0 0 3214.285714285714 2731.031363101782">
			
			<g transform="scale(10.714285714285714) translate(10, 10)">
				<defs id="SvgjsDefs1224"/><g id="SvgjsG1225" featureKey="mugSzh-0" transform="matrix(0.2978024085632232,0,0,0.2978024085632232,64.18813166964802,-3.841650956862976)" fill="#000"><g xmlns="http://www.w3.org/2000/svg"><g><g><path d="M256.3,499.8c-56.8,0-112.1-20-155.7-56.4c-1.7-1.4-1.9-3.9-0.5-5.6c1.4-1.7,3.9-1.9,5.6-0.5     c42.2,35.2,95.7,54.5,150.6,54.5c129.8,0,235.4-105.6,235.4-235.4c0-129.8-105.6-235.4-235.4-235.4     c-129.8,0-235.4,105.6-235.4,235.4c0,58.9,21.9,115.3,61.6,158.8c1.5,1.6,1.4,4.2-0.3,5.6c-1.6,1.5-4.2,1.4-5.7-0.3     c-41.1-45-63.7-103.3-63.7-164.2c0-65,25.3-126.1,71.3-172.1c46-46,107.1-71.3,172.1-71.3c65,0,126.1,25.3,172.1,71.3     c46,46,71.3,107.1,71.3,172.1c0,65-25.3,126.1-71.3,172.1S321.3,499.8,256.3,499.8z"/></g><g><path d="M256.3,499.8c-41.5,0-79.4-42.7-101.2-114.1c-0.6-2.1,0.5-4.3,2.7-5c2.1-0.6,4.3,0.5,5,2.7c10.1,32.9,24,60.3,40.2,79.3     c16.3,19.1,34.8,29.2,53.3,29.2c29.2,0,56.9-24.1,77.9-67.9c21.5-44.7,33.4-104.2,33.4-167.6c0-63.4-11.9-122.9-33.4-167.5     c-21.1-43.8-48.7-67.8-77.9-67.8c-29.2,0-56.8,24.1-77.9,67.8c-21.5,44.7-33.4,104.2-33.4,167.5c0,31.4,2.9,61.9,8.6,90.6     c0.4,2.2-1,4.3-3.1,4.7c-2.2,0.4-4.3-1-4.7-3.1c-5.8-29.2-8.8-60.2-8.8-92.2c0-64.5,12.1-125.3,34.1-171     c22.5-46.7,52.7-72.4,85.1-72.4c32.4,0,62.7,25.7,85.1,72.4c22,45.7,34.2,106.5,34.2,171c0,64.5-12.1,125.3-34.2,171     C319,474.1,288.7,499.8,256.3,499.8z"/></g><g><path d="M256.3,499.8c-2.2,0-4-1.8-4-4V355.7c0-2.2,1.8-4,4-4s4,1.8,4,4v140.1C260.3,498,258.5,499.8,256.3,499.8z M256.3,154     c-2.2,0-4-1.8-4-4v-133c0-2.2,1.8-4,4-4s4,1.8,4,4v133C260.3,152.2,258.5,154,256.3,154z"/></g><g><path d="M495.7,260.3H371c-2.2,0-4-1.8-4-4s1.8-4,4-4h124.7c2.2,0,4,1.8,4,4S497.9,260.3,495.7,260.3z M164.3,260.3H16.9     c-2.2,0-4-1.8-4-4s1.8-4,4-4h147.4c2.2,0,4,1.8,4,4S166.5,260.3,164.3,260.3z"/></g><g><path d="M256.3,136.6c-58.2,0-114.6-20.9-158.6-58.8c-1.7-1.4-1.9-4-0.4-5.6c1.4-1.7,4-1.9,5.6-0.4c42.6,36.7,97,56.8,153.4,56.8     c56.3,0,110.8-20.2,153.4-56.8c1.7-1.4,4.2-1.3,5.6,0.4c1.4,1.7,1.3,4.2-0.4,5.6C370.9,115.7,314.6,136.6,256.3,136.6z"/></g><g><path d="M256.3,136.6c-32.7,0-64.4-6.4-94.2-18.9c-2-0.9-3-3.2-2.1-5.2c0.9-2,3.2-3,5.2-2.1c28.9,12.1,59.5,18.3,91.1,18.3     c2.2,0,4,1.8,4,4S258.5,136.6,256.3,136.6z"/></g><g><path d="M256.3,136.6c-2.2,0-4-1.8-4-4V16.9c0-2.2,1.8-4,4-4c2.2,0,4,1.8,4,4v115.6C260.3,134.8,258.5,136.6,256.3,136.6z"/></g><g><path d="M267.7,360.2c-28.7,0-55.7-11.2-76-31.5c-20.3-20.3-31.5-47.3-31.5-76s11.2-55.7,31.5-76c20.3-20.3,47.3-31.5,76-31.5     c28.7,0,55.7,11.2,76,31.5c20.3,20.3,31.5,47.3,31.5,76c0,28.7-11.2,55.7-31.5,76C323.3,349.1,296.4,360.2,267.7,360.2z      M267.7,153.4c-26.6,0-51.5,10.4-70.3,29.2c-18.8,18.8-29.1,43.7-29.1,70.3c0,26.6,10.3,51.5,29.1,70.3     c18.8,18.8,43.8,29.1,70.3,29.1c26.6,0,51.5-10.3,70.3-29.1c18.8-18.8,29.1-43.7,29.1-70.3s-10.3-51.5-29.1-70.3     C319.2,163.7,294.2,153.4,267.7,153.4z"/></g><g><path d="M412.3,442c-0.9,0-1.9-0.3-2.6-1c-80.3-69-197.5-75.9-285.1-16.6c-1.8,1.2-4.3,0.8-5.6-1.1c-1.2-1.8-0.8-4.3,1.1-5.6     c43.7-29.5,97-44.1,150.2-41c53.2,3.1,104.6,23.8,144.6,58.2c1.7,1.4,1.9,4,0.4,5.6C414.6,441.5,413.4,442,412.3,442z"/></g><g><path d="M267.7,344c-24.4,0-47.2-9.5-64.5-26.7c-35.6-35.5-35.6-93.4,0-129c17.2-17.2,40.1-26.7,64.5-26.7     c24.4,0,47.3,9.5,64.5,26.7c35.5,35.6,35.5,93.5,0,129C314.9,334.5,292,344,267.7,344z M267.7,169.6c-22.2,0-43.1,8.6-58.8,24.3     c-32.4,32.5-32.4,85.3,0,117.7c15.7,15.7,36.6,24.4,58.8,24.4c22.2,0,43.1-8.7,58.8-24.4c32.4-32.4,32.4-85.2,0-117.7     C310.8,178.3,289.9,169.6,267.7,169.6z"/></g><g><path d="M163.1,361.3c-1,0-2-0.4-2.8-1.2c-1.6-1.6-1.6-4.1,0-5.7l31.4-31.4c1.6-1.6,4.1-1.6,5.7,0c1.6,1.6,1.6,4.1,0,5.7     L166,360.1C165.2,360.9,164.2,361.3,163.1,361.3z"/></g><g><path d="M58.7,482c-5.3,0-10.2-2-14-5.6c-0.1-0.1-0.2-0.2-0.3-0.3c-7.8-7.9-7.8-20.8,0-28.7L148.8,343c0.8-0.8,1.8-1.2,2.8-1.2     c0,0,0,0,0,0c1.1,0,2.1,0.4,2.8,1.2l23,23c1.6,1.6,1.6,4.1,0,5.7L73,476.1C69.2,479.9,64.1,482,58.7,482z M49.8,470.3     c0.1,0.1,0.2,0.1,0.2,0.2c2.3,2.3,5.4,3.6,8.7,3.6c3.3,0,6.4-1.3,8.7-3.6L169,368.8l-17.3-17.4L50,453.1     C45.3,457.8,45.2,465.5,49.8,470.3z"/></g><g><path d="M209.4,272.7c-2.2,0-4-1.8-4-4v-31.7c0-2.2,1.8-4,4-4s4,1.8,4,4v31.7C213.4,270.9,211.6,272.7,209.4,272.7z"/></g><g><path d="M196.1,266c-1.3,0-2.5-0.6-3.3-1.7c-1.3-1.8-0.8-4.3,1-5.6l26.5-18.4c1.8-1.3,4.3-0.8,5.6,1c1.3,1.8,0.8,4.3-1,5.6     l-26.5,18.4C197.7,265.7,196.9,266,196.1,266z"/></g><g><path d="M268.1,272.7c-2.2,0-4-1.8-4-4v-31.7c0-2.2,1.8-4,4-4s4,1.8,4,4v31.7C272.1,270.9,270.3,272.7,268.1,272.7z"/></g><g><path d="M282.6,263.7c-0.6,0-1.1-0.1-1.7-0.4l-29.2-13.7c-2-0.9-2.9-3.3-1.9-5.3c0.9-2,3.3-2.9,5.3-1.9l29.2,13.7     c2,0.9,2.9,3.3,1.9,5.3C285.6,262.8,284.1,263.7,282.6,263.7z"/></g><g><path d="M326,272.7c-2.2,0-4-1.8-4-4v-31.7c0-2.2,1.8-4,4-4s4,1.8,4,4v31.7C330,270.9,328.2,272.7,326,272.7z"/></g><g><path d="M340.6,263.7c-0.6,0-1.1-0.1-1.7-0.4l-29.2-13.7c-2-0.9-2.9-3.3-1.9-5.3c0.9-2,3.3-2.9,5.3-1.9l29.2,13.7     c2,0.9,2.9,3.3,1.9,5.3C343.5,262.8,342.1,263.7,340.6,263.7z"/></g><g><path d="M223.9,263.7c-0.6,0-1.1-0.1-1.7-0.4l-29.2-13.7c-2-0.9-2.9-3.3-1.9-5.3c0.9-2,3.3-2.9,5.3-1.9l29.2,13.7     c2,0.9,2.9,3.3,1.9,5.3C226.9,262.8,225.4,263.7,223.9,263.7z"/></g><g><path d="M254.8,266c-1.3,0-2.5-0.6-3.3-1.7c-1.3-1.8-0.8-4.3,1-5.6l26.5-18.4c1.8-1.3,4.3-0.8,5.6,1c1.3,1.8,0.8,4.3-1,5.6     l-26.5,18.4C256.4,265.7,255.6,266,254.8,266z"/></g><g><path d="M312.7,266c-1.3,0-2.5-0.6-3.3-1.7c-1.3-1.8-0.8-4.3,1-5.6l26.5-18.4c1.8-1.3,4.3-0.8,5.6,1s0.8,4.3-1,5.6L315,265.3     C314.3,265.7,313.5,266,312.7,266z"/></g></g></g></g><g id="SvgjsG1226" featureKey="PPkF4s-0" transform="matrix(2.352545555371726,0,0,2.352545555371726,-3.6699703708755878,154.1312398034101)" fill="#000"><path d="M4.7 20 l-3.14 0 l0 -15.08 l10.08 8.92 l0 -8.44 l3.16 0 l0 15.06 l-10.1 -8.78 l0 8.32 z M20.75 19.74 q-1.37 -0.54 -2.35 -1.83 t-0.98 -3.37 t0.99 -3.36 t2.37 -1.82 t2.62 -0.54 q1.44 0 2.74 0.64 t2.13 1.88 t0.87 2.94 q0 0.52 -0.02 0.9 t-0.04 0.48 l-8.68 0 q0.24 1.16 1.2 1.58 t1.8 0.42 q1.08 0 1.72 -0.39 t1.1 -0.89 l2.32 1.34 q-1.88 2.56 -5.14 2.56 q-1.28 0 -2.65 -0.54 z M21.36 12.05 q-0.78 0.61 -0.88 1.49 l5.5 0 q-0.06 -0.52 -0.4 -1 t-0.91 -0.79 t-1.29 -0.31 q-1.24 0 -2.02 0.61 z M35.26 16.08 q0 0.7 0.24 1.17 t1.12 0.47 q0.4 0 0.76 -0.04 l0 2.52 q-0.72 0.08 -1.34 0.08 q-1.28 0 -2.07 -0.21 t-1.23 -0.81 t-0.44 -1.72 l0 -6.1 l-1.34 0 l0 -2.62 l1.34 0 l0 -2.94 l2.96 0 l0 2.94 l2.2 0 l0 2.62 l-2.2 0 l0 4.64 z M38.48 9.04 l3.18 0 l1.84 4.88 l2.66 -5.48 l2.7 5.5 l1.9 -4.9 l3.16 0 l-4.72 11.42 l-3.04 -5.84 l-3 5.84 z M57.73 19.49 q-1.37 -0.77 -2.17 -2.09 t-0.8 -2.88 q0 -1.54 0.8 -2.86 t2.17 -2.09 t2.99 -0.77 t3 0.77 t2.19 2.09 t0.81 2.86 q0 1.56 -0.81 2.88 t-2.19 2.09 t-3 0.77 t-2.99 -0.77 z M59.199999999999996 11.83 q-0.7 0.41 -1.1 1.12 t-0.4 1.57 q0 0.9 0.39 1.61 t1.08 1.12 t1.55 0.41 q0.84 0 1.53 -0.41 t1.09 -1.13 t0.4 -1.6 q0 -0.86 -0.4 -1.57 t-1.09 -1.12 t-1.53 -0.41 q-0.82 0 -1.52 0.41 z M74.4 11.87 q-0.86 0.21 -1.58 0.99 t-0.72 2.28 l0 4.86 l-2.98 0 l0 -11 l2.98 0 l0 1.46 q0.74 -0.98 1.81 -1.33 t1.95 -0.33 l0 2.92 q-0.6 -0.06 -1.46 0.15 z M80.66000000000001 4.880000000000001 l0 8.8 l3.74 -4.62 l3.66 0 l-4.42 5.12 l4.6 5.82 l-3.62 0 l-2.88 -3.6 l-1.08 1.24 l0 2.36 l-3 0 l0 -15.12 l3 0 z M92.82 7.369999999999999 q-0.48 0.47 -1.16 0.47 q-0.7 0 -1.19 -0.47 t-0.49 -1.15 q0 -0.66 0.49 -1.13 t1.19 -0.47 q0.68 0 1.16 0.47 t0.48 1.13 q0 0.68 -0.48 1.15 z M90.16 9.02 l3 0 l0 10.98 l-3 0 l0 -10.98 z M105.33 10.02 q1.03 1.22 1.03 3.48 l0 6.5 l-3.06 0 l0 -6.5 q0 -2.22 -2.12 -2.22 q-0.82 0 -1.48 0.65 t-0.62 2.25 l0 5.82 l-2.98 0 l0 -11 l2.98 0 l0 0.98 q0.54 -0.54 1.36 -0.86 t1.58 -0.32 q2.28 0 3.31 1.22 z M119.10999999999999 22.77 q-1.47 1.37 -4.09 1.37 q-3.14 0 -5.26 -1.66 l1.46 -2.12 q0.68 0.54 1.61 0.88 t1.97 0.34 q2.82 0 2.82 -2.56 l0 -0.18 q-1.2 0.98 -3.08 0.98 q-1.74 0 -3.06 -0.73 t-2.02 -1.99 t-0.7 -2.78 q0 -1.54 0.7 -2.79 t2.01 -1.99 t3.07 -0.74 q1.88 0 3.08 0.98 l0 -0.78 l2.96 0 l0 10.02 q0 2.38 -1.47 3.75 z M116.24999999999999 16.91 q0.69 -0.39 1.09 -1.08 t0.4 -1.51 q0 -0.84 -0.4 -1.52 t-1.09 -1.07 t-1.53 -0.39 q-1.36 0 -2.19 0.85 t-0.83 2.13 q0 1.32 0.81 2.15 t2.21 0.83 q0.84 0 1.53 -0.39 z"/></g><g id="SvgjsG1227" featureKey="uwAHB0-0" transform="matrix(0.8041817131932051,0,0,0.8041817131932051,35.17973524307706,216.5930841963627)" fill="#000"><path d="M8.34 5.48 q3.14 0 4.88 2.22 l-1.08 0.9 q-0.6 -0.9 -1.6 -1.41 t-2.2 -0.51 q-2.64 0 -4.3 1.74 t-1.7 4.5 q0 2.74 1.67 4.47 t4.33 1.77 q1.14 0 2.32 -0.57 t1.86 -1.63 l1.08 0.82 q-1.88 2.58 -5.26 2.58 q-3.28 -0.02 -5.27 -2.12 t-2.05 -5.32 q0 -3.26 2.05 -5.33 t5.27 -2.11 z M32.644000000000005 5.48 q3.14 0 4.88 2.22 l-1.08 0.9 q-0.6 -0.9 -1.6 -1.41 t-2.2 -0.51 q-2.64 0 -4.3 1.74 t-1.7 4.5 q0 2.74 1.67 4.47 t4.33 1.77 q1.14 0 2.32 -0.57 t1.86 -1.63 l1.08 0.82 q-1.88 2.58 -5.26 2.58 q-3.28 -0.02 -5.27 -2.12 t-2.05 -5.32 q0 -3.26 2.05 -5.33 t5.27 -2.11 z M52.248000000000005 5.84 l8.62 12.4 l0.04 0 l0 -12.4 l1.32 0 l0 14.16 l-1.7 0 l-8.62 -12.4 l-0.04 0 l0 12.4 l-1.32 0 l0 -14.16 l1.7 0 z M77.99199999999999 15.04 l6.5 0 l-3.2 -7.76 z M82.032 5.84 l5.96 14.16 l-1.48 0 l-1.54 -3.76 l-7.5 0 l-1.6 3.76 l-1.38 0 l6.18 -14.16 l1.36 0 z M102.036 18.2 l-1.54 4.56 l-1.18 0 l1.32 -4.56 l1.4 0 z M122.08000000000001 5.48 q3.14 0 4.88 2.22 l-1.08 0.9 q-0.6 -0.9 -1.6 -1.41 t-2.2 -0.51 q-2.64 0 -4.3 1.74 t-1.7 4.5 q0 2.74 1.67 4.47 t4.33 1.77 q1.14 0 2.32 -0.57 t1.86 -1.63 l1.08 0.82 q-1.88 2.58 -5.26 2.58 q-3.28 -0.02 -5.27 -2.12 t-2.05 -5.32 q0 -3.26 2.05 -5.33 t5.27 -2.11 z M146.38400000000001 5.48 q3.14 0 4.88 2.22 l-1.08 0.9 q-0.6 -0.9 -1.6 -1.41 t-2.2 -0.51 q-2.64 0 -4.3 1.74 t-1.7 4.5 q0 2.74 1.67 4.47 t4.33 1.77 q1.14 0 2.32 -0.57 t1.86 -1.63 l1.08 0.82 q-1.88 2.58 -5.26 2.58 q-3.28 -0.02 -5.27 -2.12 t-2.05 -5.32 q0 -3.26 2.05 -5.33 t5.27 -2.11 z M165.988 5.84 l8.62 12.4 l0.04 0 l0 -12.4 l1.32 0 l0 14.16 l-1.7 0 l-8.62 -12.4 l-0.04 0 l0 12.4 l-1.32 0 l0 -14.16 l1.7 0 z M194.452 12.08 q1.28 0 2.1 -0.63 t0.84 -1.87 q0 -1.16 -0.82 -1.85 t-2.18 -0.69 l-3 0 l0 5.04 l3.06 0 z M194.112 5.84 q2.16 0 3.36 0.96 t1.24 2.78 q0 1.7 -1.16 2.69 t-3.02 1.01 l-3.14 0 l0 6.72 l-1.32 0 l0 -14.16 l4.04 0 z M212.436 18.2 q0.4 0 0.68 0.28 t0.28 0.68 t-0.28 0.68 t-0.68 0.28 t-0.68 -0.28 t-0.28 -0.68 t0.28 -0.68 t0.68 -0.28 z M227.86 18.2 q0.4 0 0.68 0.28 t0.28 0.68 t-0.28 0.68 t-0.68 0.28 t-0.68 -0.28 t-0.28 -0.68 t0.28 -0.68 t0.68 -0.28 z M243.28400000000002 18.2 q0.4 0 0.68 0.28 t0.28 0.68 t-0.28 0.68 t-0.68 0.28 t-0.68 -0.28 t-0.28 -0.68 t0.28 -0.68 t0.68 -0.28 z M258.708 18.2 q0.4 0 0.68 0.28 t0.28 0.68 t-0.28 0.68 t-0.68 0.28 t-0.68 -0.28 t-0.28 -0.68 t0.28 -0.68 t0.68 -0.28 z"/></g>
			</g>
		</svg>
	